<mxfile host="app.diagrams.net" modified="2024-02-13T10:06:00.118Z" agent="Mozilla/5.0 (Windows NT 10.0; Win64; x64; rv:122.0) Gecko/20100101 Firefox/122.0" etag="eFrnYQbGUBTQvuNB4gHV" version="23.1.3" type="github">
  <diagram id="prtHgNgQTEPvFCAcTncT" name="Page-1">
    <mxGraphModel dx="1509" dy="815" grid="0" gridSize="10" guides="1" tooltips="1" connect="1" arrows="1" fold="1" page="1" pageScale="1" pageWidth="1169" pageHeight="827" math="0" shadow="0">
      <root>
        <mxCell id="0" />
        <mxCell id="1" parent="0" />
        <mxCell id="pct4JsL9YCiikRHz1bx2-82" style="edgeStyle=orthogonalEdgeStyle;rounded=0;orthogonalLoop=1;jettySize=auto;html=1;exitX=1;exitY=0;exitDx=0;exitDy=0;entryX=0;entryY=0;entryDx=0;entryDy=0;" edge="1" parent="1" source="pct4JsL9YCiikRHz1bx2-3" target="pct4JsL9YCiikRHz1bx2-14">
          <mxGeometry relative="1" as="geometry">
            <Array as="points">
              <mxPoint x="202" y="146" />
              <mxPoint x="202" y="126" />
              <mxPoint x="467" y="126" />
            </Array>
          </mxGeometry>
        </mxCell>
        <mxCell id="pct4JsL9YCiikRHz1bx2-83" style="edgeStyle=orthogonalEdgeStyle;rounded=0;orthogonalLoop=1;jettySize=auto;html=1;exitX=0.75;exitY=0;exitDx=0;exitDy=0;entryX=0;entryY=0;entryDx=0;entryDy=0;" edge="1" parent="1" source="pct4JsL9YCiikRHz1bx2-3" target="pct4JsL9YCiikRHz1bx2-15">
          <mxGeometry relative="1" as="geometry">
            <Array as="points">
              <mxPoint x="163" y="146" />
              <mxPoint x="163" y="109" />
              <mxPoint x="711" y="109" />
            </Array>
          </mxGeometry>
        </mxCell>
        <mxCell id="pct4JsL9YCiikRHz1bx2-84" style="edgeStyle=orthogonalEdgeStyle;rounded=0;orthogonalLoop=1;jettySize=auto;html=1;exitX=0.5;exitY=0;exitDx=0;exitDy=0;entryX=0;entryY=0;entryDx=0;entryDy=0;" edge="1" parent="1" source="pct4JsL9YCiikRHz1bx2-3" target="pct4JsL9YCiikRHz1bx2-16">
          <mxGeometry relative="1" as="geometry">
            <Array as="points">
              <mxPoint x="127" y="90" />
              <mxPoint x="955" y="90" />
            </Array>
          </mxGeometry>
        </mxCell>
        <mxCell id="pct4JsL9YCiikRHz1bx2-89" style="edgeStyle=orthogonalEdgeStyle;rounded=0;orthogonalLoop=1;jettySize=auto;html=1;exitX=0.25;exitY=1;exitDx=0;exitDy=0;entryX=0;entryY=1;entryDx=0;entryDy=0;" edge="1" parent="1" source="pct4JsL9YCiikRHz1bx2-3" target="pct4JsL9YCiikRHz1bx2-5">
          <mxGeometry relative="1" as="geometry">
            <Array as="points">
              <mxPoint x="40" y="266" />
              <mxPoint x="40" y="561" />
              <mxPoint x="486" y="561" />
            </Array>
          </mxGeometry>
        </mxCell>
        <mxCell id="pct4JsL9YCiikRHz1bx2-90" style="edgeStyle=orthogonalEdgeStyle;rounded=0;orthogonalLoop=1;jettySize=auto;html=1;exitX=0;exitY=1;exitDx=0;exitDy=0;entryX=0;entryY=1;entryDx=0;entryDy=0;" edge="1" parent="1" source="pct4JsL9YCiikRHz1bx2-3" target="pct4JsL9YCiikRHz1bx2-6">
          <mxGeometry relative="1" as="geometry">
            <Array as="points">
              <mxPoint x="27" y="575" />
              <mxPoint x="717" y="575" />
            </Array>
          </mxGeometry>
        </mxCell>
        <mxCell id="pct4JsL9YCiikRHz1bx2-92" style="edgeStyle=orthogonalEdgeStyle;rounded=0;orthogonalLoop=1;jettySize=auto;html=1;exitX=0;exitY=0.75;exitDx=0;exitDy=0;entryX=0;entryY=1;entryDx=0;entryDy=0;" edge="1" parent="1" source="pct4JsL9YCiikRHz1bx2-3" target="pct4JsL9YCiikRHz1bx2-7">
          <mxGeometry relative="1" as="geometry">
            <Array as="points">
              <mxPoint x="27" y="249" />
              <mxPoint x="7" y="249" />
              <mxPoint x="7" y="592" />
              <mxPoint x="973" y="592" />
            </Array>
          </mxGeometry>
        </mxCell>
        <mxCell id="pct4JsL9YCiikRHz1bx2-3" value="Voeding" style="swimlane;whiteSpace=wrap;html=1;" vertex="1" parent="1">
          <mxGeometry x="27" y="146" width="200" height="120" as="geometry" />
        </mxCell>
        <mxCell id="pct4JsL9YCiikRHz1bx2-4" value="&lt;div&gt;18V rail&lt;/div&gt;&lt;div&gt;5V rail&lt;/div&gt;&lt;div&gt;3.3V rail&lt;/div&gt;&lt;div&gt;9V rail&lt;/div&gt;&lt;div&gt;-9V rail&lt;/div&gt;" style="text;html=1;align=center;verticalAlign=middle;resizable=0;points=[];autosize=1;strokeColor=none;fillColor=none;" vertex="1" parent="pct4JsL9YCiikRHz1bx2-3">
          <mxGeometry x="65" y="30" width="70" height="90" as="geometry" />
        </mxCell>
        <mxCell id="pct4JsL9YCiikRHz1bx2-12" style="edgeStyle=orthogonalEdgeStyle;rounded=0;orthogonalLoop=1;jettySize=auto;html=1;exitX=1;exitY=0.5;exitDx=0;exitDy=0;entryX=0;entryY=0.5;entryDx=0;entryDy=0;" edge="1" parent="1" source="pct4JsL9YCiikRHz1bx2-5" target="pct4JsL9YCiikRHz1bx2-6">
          <mxGeometry relative="1" as="geometry" />
        </mxCell>
        <mxCell id="pct4JsL9YCiikRHz1bx2-17" style="edgeStyle=orthogonalEdgeStyle;rounded=0;orthogonalLoop=1;jettySize=auto;html=1;exitX=0.5;exitY=0;exitDx=0;exitDy=0;entryX=0.5;entryY=1;entryDx=0;entryDy=0;" edge="1" parent="1" source="pct4JsL9YCiikRHz1bx2-5" target="pct4JsL9YCiikRHz1bx2-14">
          <mxGeometry relative="1" as="geometry" />
        </mxCell>
        <mxCell id="pct4JsL9YCiikRHz1bx2-101" style="edgeStyle=orthogonalEdgeStyle;rounded=0;orthogonalLoop=1;jettySize=auto;html=1;exitX=0.75;exitY=0;exitDx=0;exitDy=0;entryX=0.75;entryY=1;entryDx=0;entryDy=0;" edge="1" parent="1" source="pct4JsL9YCiikRHz1bx2-5" target="pct4JsL9YCiikRHz1bx2-14">
          <mxGeometry relative="1" as="geometry">
            <Array as="points">
              <mxPoint x="622" y="441" />
            </Array>
          </mxGeometry>
        </mxCell>
        <mxCell id="pct4JsL9YCiikRHz1bx2-5" value="Zone Controller" style="swimlane;whiteSpace=wrap;html=1;" vertex="1" parent="1">
          <mxGeometry x="485.5" y="441" width="170" height="100" as="geometry" />
        </mxCell>
        <mxCell id="pct4JsL9YCiikRHz1bx2-22" value="&lt;div&gt;ATTINY44A microcontroller&lt;/div&gt;&lt;div&gt;2x Digitale potentiometer&lt;br&gt;GND word onderbroken&amp;nbsp;&lt;/div&gt;&lt;div&gt;door mosfet&lt;br&gt;&lt;/div&gt;" style="text;html=1;align=center;verticalAlign=middle;resizable=0;points=[];autosize=1;strokeColor=none;fillColor=none;" vertex="1" parent="pct4JsL9YCiikRHz1bx2-5">
          <mxGeometry x="3.5" y="24" width="163" height="70" as="geometry" />
        </mxCell>
        <mxCell id="pct4JsL9YCiikRHz1bx2-13" style="edgeStyle=orthogonalEdgeStyle;rounded=0;orthogonalLoop=1;jettySize=auto;html=1;exitX=1;exitY=0.5;exitDx=0;exitDy=0;entryX=0;entryY=0.5;entryDx=0;entryDy=0;" edge="1" parent="1" source="pct4JsL9YCiikRHz1bx2-6" target="pct4JsL9YCiikRHz1bx2-7">
          <mxGeometry relative="1" as="geometry" />
        </mxCell>
        <mxCell id="pct4JsL9YCiikRHz1bx2-18" style="edgeStyle=orthogonalEdgeStyle;rounded=0;orthogonalLoop=1;jettySize=auto;html=1;exitX=0.5;exitY=0;exitDx=0;exitDy=0;entryX=0.5;entryY=1;entryDx=0;entryDy=0;" edge="1" parent="1" source="pct4JsL9YCiikRHz1bx2-6" target="pct4JsL9YCiikRHz1bx2-15">
          <mxGeometry relative="1" as="geometry" />
        </mxCell>
        <mxCell id="pct4JsL9YCiikRHz1bx2-99" style="edgeStyle=orthogonalEdgeStyle;rounded=0;orthogonalLoop=1;jettySize=auto;html=1;exitX=0.75;exitY=0;exitDx=0;exitDy=0;entryX=0.75;entryY=1;entryDx=0;entryDy=0;" edge="1" parent="1" source="pct4JsL9YCiikRHz1bx2-6" target="pct4JsL9YCiikRHz1bx2-15">
          <mxGeometry relative="1" as="geometry">
            <Array as="points">
              <mxPoint x="866" y="441" />
            </Array>
          </mxGeometry>
        </mxCell>
        <mxCell id="pct4JsL9YCiikRHz1bx2-6" value="Zone Controller" style="swimlane;whiteSpace=wrap;html=1;" vertex="1" parent="1">
          <mxGeometry x="716.5" y="441" width="196" height="100" as="geometry" />
        </mxCell>
        <mxCell id="pct4JsL9YCiikRHz1bx2-20" value="&lt;div&gt;ATTINY44A microcontroller&lt;/div&gt;&lt;div&gt;2x Digitale potentiometer&lt;br&gt;&lt;/div&gt;" style="text;html=1;align=center;verticalAlign=middle;resizable=0;points=[];autosize=1;strokeColor=none;fillColor=none;" vertex="1" parent="pct4JsL9YCiikRHz1bx2-6">
          <mxGeometry x="16.5" y="38" width="163" height="41" as="geometry" />
        </mxCell>
        <mxCell id="pct4JsL9YCiikRHz1bx2-19" style="edgeStyle=orthogonalEdgeStyle;rounded=0;orthogonalLoop=1;jettySize=auto;html=1;exitX=0.5;exitY=0;exitDx=0;exitDy=0;entryX=0.5;entryY=1;entryDx=0;entryDy=0;" edge="1" parent="1" source="pct4JsL9YCiikRHz1bx2-7" target="pct4JsL9YCiikRHz1bx2-16">
          <mxGeometry relative="1" as="geometry" />
        </mxCell>
        <mxCell id="pct4JsL9YCiikRHz1bx2-97" style="edgeStyle=orthogonalEdgeStyle;rounded=0;orthogonalLoop=1;jettySize=auto;html=1;exitX=0.75;exitY=0;exitDx=0;exitDy=0;entryX=0.75;entryY=1;entryDx=0;entryDy=0;" edge="1" parent="1" source="pct4JsL9YCiikRHz1bx2-7" target="pct4JsL9YCiikRHz1bx2-16">
          <mxGeometry relative="1" as="geometry">
            <Array as="points">
              <mxPoint x="1110" y="441" />
            </Array>
          </mxGeometry>
        </mxCell>
        <mxCell id="pct4JsL9YCiikRHz1bx2-7" value="Zone Controller" style="swimlane;whiteSpace=wrap;html=1;" vertex="1" parent="1">
          <mxGeometry x="973.5" y="441" width="170" height="100" as="geometry" />
        </mxCell>
        <mxCell id="pct4JsL9YCiikRHz1bx2-21" value="&lt;div&gt;ATTINY44A microcontroller&lt;/div&gt;&lt;div&gt;2x Digitale potentiometer&lt;br&gt;&lt;/div&gt;" style="text;html=1;align=center;verticalAlign=middle;resizable=0;points=[];autosize=1;strokeColor=none;fillColor=none;" vertex="1" parent="pct4JsL9YCiikRHz1bx2-7">
          <mxGeometry x="3.5" y="38" width="163" height="41" as="geometry" />
        </mxCell>
        <mxCell id="pct4JsL9YCiikRHz1bx2-36" style="edgeStyle=orthogonalEdgeStyle;rounded=0;orthogonalLoop=1;jettySize=auto;html=1;exitX=1;exitY=0;exitDx=0;exitDy=0;entryX=0;entryY=1;entryDx=0;entryDy=0;" edge="1" parent="1" source="pct4JsL9YCiikRHz1bx2-8">
          <mxGeometry relative="1" as="geometry">
            <mxPoint x="218.5" y="431" as="sourcePoint" />
            <mxPoint x="296.4999999999999" y="259.9999999999999" as="targetPoint" />
            <Array as="points">
              <mxPoint x="296" y="424" />
              <mxPoint x="296" y="346" />
              <mxPoint x="297" y="346" />
            </Array>
          </mxGeometry>
        </mxCell>
        <mxCell id="pct4JsL9YCiikRHz1bx2-75" style="edgeStyle=orthogonalEdgeStyle;rounded=0;orthogonalLoop=1;jettySize=auto;html=1;exitX=1;exitY=0;exitDx=0;exitDy=0;" edge="1" parent="1" source="pct4JsL9YCiikRHz1bx2-8">
          <mxGeometry relative="1" as="geometry">
            <mxPoint x="261" y="259" as="targetPoint" />
            <Array as="points">
              <mxPoint x="251" y="431" />
              <mxPoint x="213" y="431" />
              <mxPoint x="213" y="407" />
              <mxPoint x="261" y="407" />
            </Array>
          </mxGeometry>
        </mxCell>
        <mxCell id="pct4JsL9YCiikRHz1bx2-8" value="Moederbord" style="swimlane;whiteSpace=wrap;html=1;" vertex="1" parent="1">
          <mxGeometry x="51" y="424" width="200" height="120" as="geometry" />
        </mxCell>
        <mxCell id="pct4JsL9YCiikRHz1bx2-9" value="&lt;div&gt;Scherm (met SD kaart)&lt;/div&gt;&lt;div&gt;I2S module&lt;/div&gt;&lt;div&gt;ESP32&lt;br&gt;&lt;/div&gt;" style="text;html=1;align=center;verticalAlign=middle;resizable=0;points=[];autosize=1;strokeColor=none;fillColor=none;" vertex="1" parent="pct4JsL9YCiikRHz1bx2-8">
          <mxGeometry x="28.5" y="48" width="143" height="55" as="geometry" />
        </mxCell>
        <mxCell id="pct4JsL9YCiikRHz1bx2-10" style="edgeStyle=orthogonalEdgeStyle;rounded=0;orthogonalLoop=1;jettySize=auto;html=1;entryX=0.5;entryY=0;entryDx=0;entryDy=0;" edge="1" parent="1" source="pct4JsL9YCiikRHz1bx2-4" target="pct4JsL9YCiikRHz1bx2-8">
          <mxGeometry relative="1" as="geometry">
            <Array as="points">
              <mxPoint x="151" y="303" />
              <mxPoint x="151" y="303" />
            </Array>
          </mxGeometry>
        </mxCell>
        <mxCell id="pct4JsL9YCiikRHz1bx2-60" style="edgeStyle=orthogonalEdgeStyle;rounded=0;orthogonalLoop=1;jettySize=auto;html=1;exitX=0.75;exitY=0;exitDx=0;exitDy=0;entryX=0.5;entryY=1;entryDx=0;entryDy=0;" edge="1" parent="1" source="pct4JsL9YCiikRHz1bx2-14" target="pct4JsL9YCiikRHz1bx2-50">
          <mxGeometry relative="1" as="geometry" />
        </mxCell>
        <mxCell id="pct4JsL9YCiikRHz1bx2-61" style="edgeStyle=orthogonalEdgeStyle;rounded=0;orthogonalLoop=1;jettySize=auto;html=1;exitX=0.25;exitY=0;exitDx=0;exitDy=0;entryX=0.5;entryY=1;entryDx=0;entryDy=0;" edge="1" parent="1" source="pct4JsL9YCiikRHz1bx2-14" target="pct4JsL9YCiikRHz1bx2-54">
          <mxGeometry relative="1" as="geometry" />
        </mxCell>
        <mxCell id="pct4JsL9YCiikRHz1bx2-14" value="50W stereo class D amplifier" style="swimlane;whiteSpace=wrap;html=1;" vertex="1" parent="1">
          <mxGeometry x="467" y="146" width="207" height="114" as="geometry" />
        </mxCell>
        <mxCell id="pct4JsL9YCiikRHz1bx2-77" value="TPA3116D2 2x50W" style="text;html=1;align=center;verticalAlign=middle;resizable=0;points=[];autosize=1;strokeColor=none;fillColor=none;" vertex="1" parent="pct4JsL9YCiikRHz1bx2-14">
          <mxGeometry x="42.5" y="42" width="122" height="26" as="geometry" />
        </mxCell>
        <mxCell id="pct4JsL9YCiikRHz1bx2-58" style="edgeStyle=orthogonalEdgeStyle;rounded=0;orthogonalLoop=1;jettySize=auto;html=1;exitX=0.75;exitY=0;exitDx=0;exitDy=0;entryX=0.5;entryY=1;entryDx=0;entryDy=0;" edge="1" parent="1" source="pct4JsL9YCiikRHz1bx2-15" target="pct4JsL9YCiikRHz1bx2-55">
          <mxGeometry relative="1" as="geometry" />
        </mxCell>
        <mxCell id="pct4JsL9YCiikRHz1bx2-59" style="edgeStyle=orthogonalEdgeStyle;rounded=0;orthogonalLoop=1;jettySize=auto;html=1;exitX=0.25;exitY=0;exitDx=0;exitDy=0;entryX=0.5;entryY=1;entryDx=0;entryDy=0;" edge="1" parent="1" source="pct4JsL9YCiikRHz1bx2-15" target="pct4JsL9YCiikRHz1bx2-53">
          <mxGeometry relative="1" as="geometry" />
        </mxCell>
        <mxCell id="pct4JsL9YCiikRHz1bx2-15" value="50W stereo class D amplifier" style="swimlane;whiteSpace=wrap;html=1;" vertex="1" parent="1">
          <mxGeometry x="711" y="146" width="207" height="114" as="geometry" />
        </mxCell>
        <mxCell id="pct4JsL9YCiikRHz1bx2-78" value="TPA3116D2 2x 50W" style="text;html=1;align=center;verticalAlign=middle;resizable=0;points=[];autosize=1;strokeColor=none;fillColor=none;" vertex="1" parent="pct4JsL9YCiikRHz1bx2-15">
          <mxGeometry x="41.5" y="44" width="125" height="26" as="geometry" />
        </mxCell>
        <mxCell id="pct4JsL9YCiikRHz1bx2-62" style="edgeStyle=orthogonalEdgeStyle;rounded=0;orthogonalLoop=1;jettySize=auto;html=1;exitX=0.75;exitY=0;exitDx=0;exitDy=0;entryX=0.5;entryY=1;entryDx=0;entryDy=0;" edge="1" parent="1" source="pct4JsL9YCiikRHz1bx2-16" target="pct4JsL9YCiikRHz1bx2-56">
          <mxGeometry relative="1" as="geometry" />
        </mxCell>
        <mxCell id="pct4JsL9YCiikRHz1bx2-64" style="edgeStyle=orthogonalEdgeStyle;rounded=0;orthogonalLoop=1;jettySize=auto;html=1;exitX=0.25;exitY=0;exitDx=0;exitDy=0;entryX=0.5;entryY=1;entryDx=0;entryDy=0;" edge="1" parent="1" source="pct4JsL9YCiikRHz1bx2-16" target="pct4JsL9YCiikRHz1bx2-52">
          <mxGeometry relative="1" as="geometry" />
        </mxCell>
        <mxCell id="pct4JsL9YCiikRHz1bx2-16" value="50W stereo class D amplifier" style="swimlane;whiteSpace=wrap;html=1;" vertex="1" parent="1">
          <mxGeometry x="955" y="146" width="207" height="114" as="geometry" />
        </mxCell>
        <mxCell id="pct4JsL9YCiikRHz1bx2-79" value="TPA3116D2 2x50W" style="text;html=1;align=center;verticalAlign=middle;resizable=0;points=[];autosize=1;strokeColor=none;fillColor=none;" vertex="1" parent="pct4JsL9YCiikRHz1bx2-16">
          <mxGeometry x="42.5" y="44" width="122" height="26" as="geometry" />
        </mxCell>
        <mxCell id="pct4JsL9YCiikRHz1bx2-38" style="edgeStyle=orthogonalEdgeStyle;rounded=0;orthogonalLoop=1;jettySize=auto;html=1;exitX=0.25;exitY=1;exitDx=0;exitDy=0;entryX=0;entryY=0.25;entryDx=0;entryDy=0;" edge="1" parent="1" source="pct4JsL9YCiikRHz1bx2-23" target="pct4JsL9YCiikRHz1bx2-5">
          <mxGeometry relative="1" as="geometry">
            <Array as="points">
              <mxPoint x="325" y="260" />
              <mxPoint x="325" y="466" />
            </Array>
          </mxGeometry>
        </mxCell>
        <mxCell id="pct4JsL9YCiikRHz1bx2-39" style="edgeStyle=orthogonalEdgeStyle;rounded=0;orthogonalLoop=1;jettySize=auto;html=1;exitX=0.5;exitY=1;exitDx=0;exitDy=0;entryX=0.25;entryY=0;entryDx=0;entryDy=0;" edge="1" parent="1">
          <mxGeometry relative="1" as="geometry">
            <mxPoint x="363.01" y="259.9999999999999" as="sourcePoint" />
            <mxPoint x="790.01" y="441" as="targetPoint" />
            <Array as="points">
              <mxPoint x="369" y="260" />
              <mxPoint x="369" y="401" />
              <mxPoint x="790" y="401" />
            </Array>
          </mxGeometry>
        </mxCell>
        <mxCell id="pct4JsL9YCiikRHz1bx2-40" style="edgeStyle=orthogonalEdgeStyle;rounded=0;orthogonalLoop=1;jettySize=auto;html=1;exitX=0.75;exitY=1;exitDx=0;exitDy=0;entryX=0.25;entryY=0;entryDx=0;entryDy=0;" edge="1" parent="1" source="pct4JsL9YCiikRHz1bx2-23" target="pct4JsL9YCiikRHz1bx2-7">
          <mxGeometry relative="1" as="geometry">
            <Array as="points">
              <mxPoint x="416" y="260" />
              <mxPoint x="416" y="351" />
              <mxPoint x="1016" y="351" />
            </Array>
          </mxGeometry>
        </mxCell>
        <mxCell id="pct4JsL9YCiikRHz1bx2-23" value="Audio Invoer Module" style="swimlane;whiteSpace=wrap;html=1;" vertex="1" parent="1">
          <mxGeometry x="235" y="146" width="207" height="114" as="geometry" />
        </mxCell>
        <mxCell id="pct4JsL9YCiikRHz1bx2-24" value="&lt;div&gt;3x CD4052BE IC&#39;s&lt;br&gt;&lt;/div&gt;" style="text;html=1;align=center;verticalAlign=middle;resizable=0;points=[];autosize=1;strokeColor=none;fillColor=none;" vertex="1" parent="pct4JsL9YCiikRHz1bx2-23">
          <mxGeometry x="44" y="51" width="119" height="26" as="geometry" />
        </mxCell>
        <mxCell id="pct4JsL9YCiikRHz1bx2-27" value="Audio &lt;br&gt;Input 1" style="rounded=0;whiteSpace=wrap;html=1;" vertex="1" parent="1">
          <mxGeometry x="254.5" y="32" width="42" height="32" as="geometry" />
        </mxCell>
        <mxCell id="pct4JsL9YCiikRHz1bx2-32" style="edgeStyle=orthogonalEdgeStyle;rounded=0;orthogonalLoop=1;jettySize=auto;html=1;exitX=0.5;exitY=1;exitDx=0;exitDy=0;entryX=0.5;entryY=0;entryDx=0;entryDy=0;" edge="1" parent="1" source="pct4JsL9YCiikRHz1bx2-28" target="pct4JsL9YCiikRHz1bx2-23">
          <mxGeometry relative="1" as="geometry" />
        </mxCell>
        <mxCell id="pct4JsL9YCiikRHz1bx2-28" value="Audio &lt;br&gt;Input 2" style="rounded=0;whiteSpace=wrap;html=1;" vertex="1" parent="1">
          <mxGeometry x="317.5" y="32" width="42" height="32" as="geometry" />
        </mxCell>
        <mxCell id="pct4JsL9YCiikRHz1bx2-30" value="Audio &lt;br&gt;Input 3" style="rounded=0;whiteSpace=wrap;html=1;" vertex="1" parent="1">
          <mxGeometry x="380.5" y="32" width="42" height="32" as="geometry" />
        </mxCell>
        <mxCell id="pct4JsL9YCiikRHz1bx2-31" style="edgeStyle=orthogonalEdgeStyle;rounded=0;orthogonalLoop=1;jettySize=auto;html=1;exitX=0.5;exitY=1;exitDx=0;exitDy=0;entryX=0.197;entryY=0.013;entryDx=0;entryDy=0;entryPerimeter=0;" edge="1" parent="1" source="pct4JsL9YCiikRHz1bx2-27" target="pct4JsL9YCiikRHz1bx2-23">
          <mxGeometry relative="1" as="geometry" />
        </mxCell>
        <mxCell id="pct4JsL9YCiikRHz1bx2-33" style="edgeStyle=orthogonalEdgeStyle;rounded=0;orthogonalLoop=1;jettySize=auto;html=1;exitX=0.5;exitY=1;exitDx=0;exitDy=0;entryX=0.805;entryY=0.013;entryDx=0;entryDy=0;entryPerimeter=0;" edge="1" parent="1" source="pct4JsL9YCiikRHz1bx2-30" target="pct4JsL9YCiikRHz1bx2-23">
          <mxGeometry relative="1" as="geometry" />
        </mxCell>
        <mxCell id="pct4JsL9YCiikRHz1bx2-34" value="4x Audio Ingang" style="text;html=1;align=center;verticalAlign=middle;resizable=0;points=[];autosize=1;strokeColor=none;fillColor=none;" vertex="1" parent="1">
          <mxGeometry x="281.5" y="172" width="105" height="26" as="geometry" />
        </mxCell>
        <mxCell id="pct4JsL9YCiikRHz1bx2-35" value="3x Audio uitgang" style="text;html=1;align=center;verticalAlign=middle;resizable=0;points=[];autosize=1;strokeColor=none;fillColor=none;" vertex="1" parent="1">
          <mxGeometry x="282.5" y="220" width="108" height="26" as="geometry" />
        </mxCell>
        <mxCell id="pct4JsL9YCiikRHz1bx2-37" value="Audio Input 4" style="text;html=1;align=center;verticalAlign=middle;whiteSpace=wrap;rounded=0;fontSize=9;rotation=90;" vertex="1" parent="1">
          <mxGeometry x="272" y="280" width="74" height="30" as="geometry" />
        </mxCell>
        <mxCell id="pct4JsL9YCiikRHz1bx2-41" value="Audio&lt;br style=&quot;font-size: 9px;&quot;&gt;Output&lt;br style=&quot;font-size: 9px;&quot;&gt;&lt;div style=&quot;font-size: 9px;&quot;&gt;Zone 2&lt;br&gt;&lt;/div&gt;" style="text;html=1;align=center;verticalAlign=middle;whiteSpace=wrap;rounded=0;rotation=90;fontSize=9;" vertex="1" parent="1">
          <mxGeometry x="357" y="274" width="60" height="30" as="geometry" />
        </mxCell>
        <mxCell id="pct4JsL9YCiikRHz1bx2-42" value="Audio&lt;br style=&quot;font-size: 9px;&quot;&gt;Output&lt;br style=&quot;font-size: 9px;&quot;&gt;&lt;div style=&quot;font-size: 9px;&quot;&gt;Zone 3&lt;/div&gt;" style="text;html=1;align=center;verticalAlign=middle;whiteSpace=wrap;rounded=0;rotation=90;fontSize=9;" vertex="1" parent="1">
          <mxGeometry x="403" y="274" width="60" height="30" as="geometry" />
        </mxCell>
        <mxCell id="pct4JsL9YCiikRHz1bx2-43" value="Audio&lt;br style=&quot;font-size: 9px;&quot;&gt;Output&lt;br style=&quot;font-size: 9px;&quot;&gt;&lt;div style=&quot;font-size: 9px;&quot;&gt;Zone 1&lt;br&gt;&lt;/div&gt;" style="text;html=1;align=center;verticalAlign=middle;whiteSpace=wrap;rounded=0;rotation=90;fontSize=9;" vertex="1" parent="1">
          <mxGeometry x="313" y="274" width="60" height="30" as="geometry" />
        </mxCell>
        <mxCell id="pct4JsL9YCiikRHz1bx2-44" value="Audio" style="text;html=1;align=center;verticalAlign=middle;whiteSpace=wrap;rounded=0;rotation=-90;fontSize=9;" vertex="1" parent="1">
          <mxGeometry x="529" y="274" width="60" height="30" as="geometry" />
        </mxCell>
        <mxCell id="pct4JsL9YCiikRHz1bx2-46" value="Audio" style="text;html=1;align=center;verticalAlign=middle;whiteSpace=wrap;rounded=0;rotation=-90;fontSize=9;" vertex="1" parent="1">
          <mxGeometry x="773" y="269" width="60" height="30" as="geometry" />
        </mxCell>
        <mxCell id="pct4JsL9YCiikRHz1bx2-48" value="Audio" style="text;html=1;align=center;verticalAlign=middle;whiteSpace=wrap;rounded=0;rotation=-90;fontSize=9;" vertex="1" parent="1">
          <mxGeometry x="1019" y="269" width="60" height="30" as="geometry" />
        </mxCell>
        <mxCell id="pct4JsL9YCiikRHz1bx2-50" value="Audio Output 1&lt;br&gt;Right" style="rounded=0;whiteSpace=wrap;html=1;" vertex="1" parent="1">
          <mxGeometry x="590.5" y="26" width="65" height="44" as="geometry" />
        </mxCell>
        <mxCell id="pct4JsL9YCiikRHz1bx2-52" value="Audio Output 3&lt;br&gt;Left" style="rounded=0;whiteSpace=wrap;html=1;" vertex="1" parent="1">
          <mxGeometry x="973.5" y="26" width="65" height="44" as="geometry" />
        </mxCell>
        <mxCell id="pct4JsL9YCiikRHz1bx2-53" value="Audio Output 2&lt;br&gt;Left" style="rounded=0;whiteSpace=wrap;html=1;" vertex="1" parent="1">
          <mxGeometry x="730" y="26" width="65" height="44" as="geometry" />
        </mxCell>
        <mxCell id="pct4JsL9YCiikRHz1bx2-54" value="Audio Output 1&lt;br&gt;Left&lt;br&gt;" style="rounded=0;whiteSpace=wrap;html=1;" vertex="1" parent="1">
          <mxGeometry x="485.5" y="26" width="65" height="44" as="geometry" />
        </mxCell>
        <mxCell id="pct4JsL9YCiikRHz1bx2-55" value="Audio Output 2&lt;br&gt;Right" style="rounded=0;whiteSpace=wrap;html=1;" vertex="1" parent="1">
          <mxGeometry x="833" y="26" width="65" height="44" as="geometry" />
        </mxCell>
        <mxCell id="pct4JsL9YCiikRHz1bx2-56" value="Audio Output 3&lt;br&gt;Right" style="rounded=0;whiteSpace=wrap;html=1;" vertex="1" parent="1">
          <mxGeometry x="1078.5" y="26" width="65" height="44" as="geometry" />
        </mxCell>
        <mxCell id="pct4JsL9YCiikRHz1bx2-65" value="5V en 3.3V" style="text;html=1;align=center;verticalAlign=middle;whiteSpace=wrap;rounded=0;fontSize=9;rotation=90;" vertex="1" parent="1">
          <mxGeometry x="108" y="280" width="74" height="30" as="geometry" />
        </mxCell>
        <mxCell id="pct4JsL9YCiikRHz1bx2-67" value="5V, 3.3V en I2C" style="text;html=1;align=center;verticalAlign=middle;whiteSpace=wrap;rounded=0;fontSize=9;rotation=0;" vertex="1" parent="1">
          <mxGeometry x="251" y="476" width="74" height="30" as="geometry" />
        </mxCell>
        <mxCell id="pct4JsL9YCiikRHz1bx2-69" style="edgeStyle=orthogonalEdgeStyle;rounded=0;orthogonalLoop=1;jettySize=auto;html=1;exitX=1;exitY=0.5;exitDx=0;exitDy=0;entryX=-0.015;entryY=0.283;entryDx=0;entryDy=0;entryPerimeter=0;" edge="1" parent="1" source="pct4JsL9YCiikRHz1bx2-8" target="pct4JsL9YCiikRHz1bx2-22">
          <mxGeometry relative="1" as="geometry" />
        </mxCell>
        <mxCell id="pct4JsL9YCiikRHz1bx2-71" value="5V, 3.3V en I2C" style="text;html=1;align=center;verticalAlign=middle;whiteSpace=wrap;rounded=0;fontSize=8;rotation=0;" vertex="1" parent="1">
          <mxGeometry x="649" y="487" width="74" height="30" as="geometry" />
        </mxCell>
        <mxCell id="pct4JsL9YCiikRHz1bx2-73" value="5V, 3.3V en I2C" style="text;html=1;align=center;verticalAlign=middle;whiteSpace=wrap;rounded=0;fontSize=8;rotation=0;" vertex="1" parent="1">
          <mxGeometry x="906" y="490" width="74" height="30" as="geometry" />
        </mxCell>
        <mxCell id="pct4JsL9YCiikRHz1bx2-76" value="Audio Select" style="text;html=1;align=center;verticalAlign=middle;whiteSpace=wrap;rounded=0;fontSize=9;rotation=90;" vertex="1" parent="1">
          <mxGeometry x="235" y="277" width="74" height="30" as="geometry" />
        </mxCell>
        <mxCell id="pct4JsL9YCiikRHz1bx2-85" value="+18V" style="text;html=1;align=center;verticalAlign=middle;whiteSpace=wrap;rounded=0;" vertex="1" parent="1">
          <mxGeometry x="108" y="67" width="60" height="30" as="geometry" />
        </mxCell>
        <mxCell id="pct4JsL9YCiikRHz1bx2-86" value="+18V" style="text;html=1;align=center;verticalAlign=middle;whiteSpace=wrap;rounded=0;" vertex="1" parent="1">
          <mxGeometry x="147" y="86" width="60" height="30" as="geometry" />
        </mxCell>
        <mxCell id="pct4JsL9YCiikRHz1bx2-87" value="+18V" style="text;html=1;align=center;verticalAlign=middle;whiteSpace=wrap;rounded=0;" vertex="1" parent="1">
          <mxGeometry x="184" y="104" width="60" height="30" as="geometry" />
        </mxCell>
        <mxCell id="pct4JsL9YCiikRHz1bx2-93" value="GND" style="text;html=1;align=center;verticalAlign=middle;whiteSpace=wrap;rounded=0;" vertex="1" parent="1">
          <mxGeometry x="436" y="535" width="60" height="30" as="geometry" />
        </mxCell>
        <mxCell id="pct4JsL9YCiikRHz1bx2-94" value="GND" style="text;html=1;align=center;verticalAlign=middle;whiteSpace=wrap;rounded=0;" vertex="1" parent="1">
          <mxGeometry x="668" y="549" width="60" height="30" as="geometry" />
        </mxCell>
        <mxCell id="pct4JsL9YCiikRHz1bx2-95" value="GND" style="text;html=1;align=center;verticalAlign=middle;whiteSpace=wrap;rounded=0;" vertex="1" parent="1">
          <mxGeometry x="924" y="565" width="60" height="30" as="geometry" />
        </mxCell>
        <mxCell id="pct4JsL9YCiikRHz1bx2-98" value="GND" style="text;html=1;align=center;verticalAlign=middle;whiteSpace=wrap;rounded=0;rotation=-90;" vertex="1" parent="1">
          <mxGeometry x="1090" y="274" width="60" height="30" as="geometry" />
        </mxCell>
        <mxCell id="pct4JsL9YCiikRHz1bx2-100" value="GND" style="text;html=1;align=center;verticalAlign=middle;whiteSpace=wrap;rounded=0;rotation=-90;" vertex="1" parent="1">
          <mxGeometry x="844" y="277" width="60" height="30" as="geometry" />
        </mxCell>
        <mxCell id="pct4JsL9YCiikRHz1bx2-102" value="GND" style="text;html=1;align=center;verticalAlign=middle;whiteSpace=wrap;rounded=0;rotation=-90;" vertex="1" parent="1">
          <mxGeometry x="600" y="269" width="60" height="30" as="geometry" />
        </mxCell>
      </root>
    </mxGraphModel>
  </diagram>
</mxfile>
